<mxfile host="drawio-plugin" modified="2022-09-25T13:41:11.066Z" agent="5.0 (Windows NT 6.2; Win64; x64) AppleWebKit/537.36 (KHTML, like Gecko) Chrome/97.0.4692.45 Safari/537.36" etag="2ZW4O7OOzZolvugf8t_h" version="15.5.4" type="embed"><diagram id="uJn_Mp7WumnW1fRbCV0h" name="Page-1"><mxGraphModel dx="911" dy="743" grid="1" gridSize="10" guides="1" tooltips="1" connect="1" arrows="1" fold="1" page="1" pageScale="1" pageWidth="850" pageHeight="1100" math="0" shadow="0"><root><mxCell id="0"/><mxCell id="1" parent="0"/><mxCell id="2" value="ZZ" style="shape=table;startSize=40;container=1;collapsible=0;childLayout=tableLayout;fixedRows=1;rowLines=0;fontStyle=1;align=center;pointerEvents=1;" parent="1" vertex="1"><mxGeometry x="40" y="40" width="200" height="400" as="geometry"/></mxCell><mxCell id="3" value="" style="shape=partialRectangle;html=1;whiteSpace=wrap;collapsible=0;dropTarget=0;pointerEvents=1;fillColor=none;top=0;left=0;bottom=1;right=0;points=[[0,0.5],[1,0.5]];portConstraint=eastwest;" parent="2" vertex="1"><mxGeometry y="40" width="200" height="40" as="geometry"/></mxCell><mxCell id="4" value="1" style="shape=partialRectangle;html=1;whiteSpace=wrap;connectable=0;fillColor=none;top=0;left=0;bottom=0;right=0;overflow=hidden;pointerEvents=1;" parent="3" vertex="1"><mxGeometry width="40" height="40" as="geometry"><mxRectangle width="40" height="40" as="alternateBounds"/></mxGeometry></mxCell><mxCell id="5" value="id" style="shape=partialRectangle;html=1;whiteSpace=wrap;connectable=0;fillColor=none;top=0;left=0;bottom=0;right=0;align=left;spacingLeft=6;overflow=hidden;pointerEvents=1;" parent="3" vertex="1"><mxGeometry x="40" width="160" height="40" as="geometry"><mxRectangle width="160" height="40" as="alternateBounds"/></mxGeometry></mxCell><mxCell id="6" value="" style="shape=partialRectangle;html=1;whiteSpace=wrap;collapsible=0;dropTarget=0;pointerEvents=1;fillColor=none;top=0;left=0;bottom=0;right=0;points=[[0,0.5],[1,0.5]];portConstraint=eastwest;" parent="2" vertex="1"><mxGeometry y="80" width="200" height="40" as="geometry"/></mxCell><mxCell id="7" value="2" style="shape=partialRectangle;html=1;whiteSpace=wrap;connectable=0;fillColor=none;top=0;left=0;bottom=0;right=0;overflow=hidden;pointerEvents=1;" parent="6" vertex="1"><mxGeometry width="40" height="40" as="geometry"><mxRectangle width="40" height="40" as="alternateBounds"/></mxGeometry></mxCell><mxCell id="8" value="firstName" style="shape=partialRectangle;html=1;whiteSpace=wrap;connectable=0;fillColor=none;top=0;left=0;bottom=0;right=0;align=left;spacingLeft=6;overflow=hidden;pointerEvents=1;" parent="6" vertex="1"><mxGeometry x="40" width="160" height="40" as="geometry"><mxRectangle width="160" height="40" as="alternateBounds"/></mxGeometry></mxCell><mxCell id="9" value="" style="shape=partialRectangle;html=1;whiteSpace=wrap;collapsible=0;dropTarget=0;pointerEvents=1;fillColor=none;top=0;left=0;bottom=0;right=0;points=[[0,0.5],[1,0.5]];portConstraint=eastwest;" parent="2" vertex="1"><mxGeometry y="120" width="200" height="40" as="geometry"/></mxCell><mxCell id="10" value="3" style="shape=partialRectangle;html=1;whiteSpace=wrap;connectable=0;fillColor=none;top=0;left=0;bottom=0;right=0;overflow=hidden;pointerEvents=1;" parent="9" vertex="1"><mxGeometry width="40" height="40" as="geometry"><mxRectangle width="40" height="40" as="alternateBounds"/></mxGeometry></mxCell><mxCell id="11" value="secondName" style="shape=partialRectangle;html=1;whiteSpace=wrap;connectable=0;fillColor=none;top=0;left=0;bottom=0;right=0;align=left;spacingLeft=6;overflow=hidden;pointerEvents=1;" parent="9" vertex="1"><mxGeometry x="40" width="160" height="40" as="geometry"><mxRectangle width="160" height="40" as="alternateBounds"/></mxGeometry></mxCell><mxCell id="12" value="" style="shape=partialRectangle;html=1;whiteSpace=wrap;collapsible=0;dropTarget=0;pointerEvents=1;fillColor=none;top=0;left=0;bottom=0;right=0;points=[[0,0.5],[1,0.5]];portConstraint=eastwest;" parent="2" vertex="1"><mxGeometry y="160" width="200" height="40" as="geometry"/></mxCell><mxCell id="13" value="4" style="shape=partialRectangle;html=1;whiteSpace=wrap;connectable=0;fillColor=none;top=0;left=0;bottom=0;right=0;overflow=hidden;pointerEvents=1;" parent="12" vertex="1"><mxGeometry width="40" height="40" as="geometry"><mxRectangle width="40" height="40" as="alternateBounds"/></mxGeometry></mxCell><mxCell id="14" value="middleName" style="shape=partialRectangle;html=1;whiteSpace=wrap;connectable=0;fillColor=none;top=0;left=0;bottom=0;right=0;align=left;spacingLeft=6;overflow=hidden;pointerEvents=1;" parent="12" vertex="1"><mxGeometry x="40" width="160" height="40" as="geometry"><mxRectangle width="160" height="40" as="alternateBounds"/></mxGeometry></mxCell><mxCell id="18" value="" style="shape=partialRectangle;html=1;whiteSpace=wrap;collapsible=0;dropTarget=0;pointerEvents=1;fillColor=none;top=0;left=0;bottom=0;right=0;points=[[0,0.5],[1,0.5]];portConstraint=eastwest;" parent="2" vertex="1"><mxGeometry y="200" width="200" height="40" as="geometry"/></mxCell><mxCell id="19" value="5" style="shape=partialRectangle;html=1;whiteSpace=wrap;connectable=0;fillColor=none;top=0;left=0;bottom=0;right=0;overflow=hidden;pointerEvents=1;" parent="18" vertex="1"><mxGeometry width="40" height="40" as="geometry"><mxRectangle width="40" height="40" as="alternateBounds"/></mxGeometry></mxCell><mxCell id="20" value="country" style="shape=partialRectangle;html=1;whiteSpace=wrap;connectable=0;fillColor=none;top=0;left=0;bottom=0;right=0;align=left;spacingLeft=6;overflow=hidden;pointerEvents=1;" parent="18" vertex="1"><mxGeometry x="40" width="160" height="40" as="geometry"><mxRectangle width="160" height="40" as="alternateBounds"/></mxGeometry></mxCell><mxCell id="21" value="" style="shape=partialRectangle;html=1;whiteSpace=wrap;collapsible=0;dropTarget=0;pointerEvents=1;fillColor=none;top=0;left=0;bottom=0;right=0;points=[[0,0.5],[1,0.5]];portConstraint=eastwest;" parent="2" vertex="1"><mxGeometry y="240" width="200" height="40" as="geometry"/></mxCell><mxCell id="22" value="6" style="shape=partialRectangle;html=1;whiteSpace=wrap;connectable=0;fillColor=none;top=0;left=0;bottom=0;right=0;overflow=hidden;pointerEvents=1;" parent="21" vertex="1"><mxGeometry width="40" height="40" as="geometry"><mxRectangle width="40" height="40" as="alternateBounds"/></mxGeometry></mxCell><mxCell id="23" value="city" style="shape=partialRectangle;html=1;whiteSpace=wrap;connectable=0;fillColor=none;top=0;left=0;bottom=0;right=0;align=left;spacingLeft=6;overflow=hidden;pointerEvents=1;" parent="21" vertex="1"><mxGeometry x="40" width="160" height="40" as="geometry"><mxRectangle width="160" height="40" as="alternateBounds"/></mxGeometry></mxCell><mxCell id="24" value="" style="shape=partialRectangle;html=1;whiteSpace=wrap;collapsible=0;dropTarget=0;pointerEvents=1;fillColor=none;top=0;left=0;bottom=0;right=0;points=[[0,0.5],[1,0.5]];portConstraint=eastwest;" parent="2" vertex="1"><mxGeometry y="280" width="200" height="40" as="geometry"/></mxCell><mxCell id="25" value="7" style="shape=partialRectangle;html=1;whiteSpace=wrap;connectable=0;fillColor=none;top=0;left=0;bottom=0;right=0;overflow=hidden;pointerEvents=1;" parent="24" vertex="1"><mxGeometry width="40" height="40" as="geometry"><mxRectangle width="40" height="40" as="alternateBounds"/></mxGeometry></mxCell><mxCell id="26" value="street" style="shape=partialRectangle;html=1;whiteSpace=wrap;connectable=0;fillColor=none;top=0;left=0;bottom=0;right=0;align=left;spacingLeft=6;overflow=hidden;pointerEvents=1;" parent="24" vertex="1"><mxGeometry x="40" width="160" height="40" as="geometry"><mxRectangle width="160" height="40" as="alternateBounds"/></mxGeometry></mxCell><mxCell id="27" value="" style="shape=partialRectangle;html=1;whiteSpace=wrap;collapsible=0;dropTarget=0;pointerEvents=1;fillColor=none;top=0;left=0;bottom=0;right=0;points=[[0,0.5],[1,0.5]];portConstraint=eastwest;" parent="2" vertex="1"><mxGeometry y="320" width="200" height="40" as="geometry"/></mxCell><mxCell id="28" value="8" style="shape=partialRectangle;html=1;whiteSpace=wrap;connectable=0;fillColor=none;top=0;left=0;bottom=0;right=0;overflow=hidden;pointerEvents=1;" parent="27" vertex="1"><mxGeometry width="40" height="40" as="geometry"><mxRectangle width="40" height="40" as="alternateBounds"/></mxGeometry></mxCell><mxCell id="29" value="houseNumber" style="shape=partialRectangle;html=1;whiteSpace=wrap;connectable=0;fillColor=none;top=0;left=0;bottom=0;right=0;align=left;spacingLeft=6;overflow=hidden;pointerEvents=1;" parent="27" vertex="1"><mxGeometry x="40" width="160" height="40" as="geometry"><mxRectangle width="160" height="40" as="alternateBounds"/></mxGeometry></mxCell><mxCell id="30" value="" style="shape=partialRectangle;html=1;whiteSpace=wrap;collapsible=0;dropTarget=0;pointerEvents=1;fillColor=none;top=0;left=0;bottom=0;right=0;points=[[0,0.5],[1,0.5]];portConstraint=eastwest;" parent="2" vertex="1"><mxGeometry y="360" width="200" height="40" as="geometry"/></mxCell><mxCell id="31" value="9" style="shape=partialRectangle;html=1;whiteSpace=wrap;connectable=0;fillColor=none;top=0;left=0;bottom=0;right=0;overflow=hidden;pointerEvents=1;" parent="30" vertex="1"><mxGeometry width="40" height="40" as="geometry"><mxRectangle width="40" height="40" as="alternateBounds"/></mxGeometry></mxCell><mxCell id="32" value="clientStatus" style="shape=partialRectangle;html=1;whiteSpace=wrap;connectable=0;fillColor=none;top=0;left=0;bottom=0;right=0;align=left;spacingLeft=6;overflow=hidden;pointerEvents=1;" parent="30" vertex="1"><mxGeometry x="40" width="160" height="40" as="geometry"><mxRectangle width="160" height="40" as="alternateBounds"/></mxGeometry></mxCell><mxCell id="68" value="Order" style="shape=table;startSize=40;container=1;collapsible=0;childLayout=tableLayout;fixedRows=1;rowLines=0;fontStyle=1;align=center;pointerEvents=1;" vertex="1" parent="1"><mxGeometry x="600" y="40" width="200" height="320" as="geometry"/></mxCell><mxCell id="69" value="" style="shape=partialRectangle;html=1;whiteSpace=wrap;collapsible=0;dropTarget=0;pointerEvents=1;fillColor=none;top=0;left=0;bottom=1;right=0;points=[[0,0.5],[1,0.5]];portConstraint=eastwest;" vertex="1" parent="68"><mxGeometry y="40" width="200" height="40" as="geometry"/></mxCell><mxCell id="70" value="1" style="shape=partialRectangle;html=1;whiteSpace=wrap;connectable=0;fillColor=none;top=0;left=0;bottom=0;right=0;overflow=hidden;pointerEvents=1;" vertex="1" parent="69"><mxGeometry width="40" height="40" as="geometry"><mxRectangle width="40" height="40" as="alternateBounds"/></mxGeometry></mxCell><mxCell id="71" value="id" style="shape=partialRectangle;html=1;whiteSpace=wrap;connectable=0;fillColor=none;top=0;left=0;bottom=0;right=0;align=left;spacingLeft=6;overflow=hidden;pointerEvents=1;" vertex="1" parent="69"><mxGeometry x="40" width="160" height="40" as="geometry"><mxRectangle width="160" height="40" as="alternateBounds"/></mxGeometry></mxCell><mxCell id="72" value="" style="shape=partialRectangle;html=1;whiteSpace=wrap;collapsible=0;dropTarget=0;pointerEvents=1;fillColor=none;top=0;left=0;bottom=0;right=0;points=[[0,0.5],[1,0.5]];portConstraint=eastwest;" vertex="1" parent="68"><mxGeometry y="80" width="200" height="40" as="geometry"/></mxCell><mxCell id="73" value="2" style="shape=partialRectangle;html=1;whiteSpace=wrap;connectable=0;fillColor=none;top=0;left=0;bottom=0;right=0;overflow=hidden;pointerEvents=1;" vertex="1" parent="72"><mxGeometry width="40" height="40" as="geometry"><mxRectangle width="40" height="40" as="alternateBounds"/></mxGeometry></mxCell><mxCell id="74" value="client" style="shape=partialRectangle;html=1;whiteSpace=wrap;connectable=0;fillColor=none;top=0;left=0;bottom=0;right=0;align=left;spacingLeft=6;overflow=hidden;pointerEvents=1;" vertex="1" parent="72"><mxGeometry x="40" width="160" height="40" as="geometry"><mxRectangle width="160" height="40" as="alternateBounds"/></mxGeometry></mxCell><mxCell id="75" value="" style="shape=partialRectangle;html=1;whiteSpace=wrap;collapsible=0;dropTarget=0;pointerEvents=1;fillColor=none;top=0;left=0;bottom=0;right=0;points=[[0,0.5],[1,0.5]];portConstraint=eastwest;" vertex="1" parent="68"><mxGeometry y="120" width="200" height="40" as="geometry"/></mxCell><mxCell id="76" value="3" style="shape=partialRectangle;html=1;whiteSpace=wrap;connectable=0;fillColor=none;top=0;left=0;bottom=0;right=0;overflow=hidden;pointerEvents=1;" vertex="1" parent="75"><mxGeometry width="40" height="40" as="geometry"><mxRectangle width="40" height="40" as="alternateBounds"/></mxGeometry></mxCell><mxCell id="77" value="book" style="shape=partialRectangle;html=1;whiteSpace=wrap;connectable=0;fillColor=none;top=0;left=0;bottom=0;right=0;align=left;spacingLeft=6;overflow=hidden;pointerEvents=1;" vertex="1" parent="75"><mxGeometry x="40" width="160" height="40" as="geometry"><mxRectangle width="160" height="40" as="alternateBounds"/></mxGeometry></mxCell><mxCell id="78" value="" style="shape=partialRectangle;html=1;whiteSpace=wrap;collapsible=0;dropTarget=0;pointerEvents=1;fillColor=none;top=0;left=0;bottom=0;right=0;points=[[0,0.5],[1,0.5]];portConstraint=eastwest;" vertex="1" parent="68"><mxGeometry y="160" width="200" height="40" as="geometry"/></mxCell><mxCell id="79" value="4" style="shape=partialRectangle;html=1;whiteSpace=wrap;connectable=0;fillColor=none;top=0;left=0;bottom=0;right=0;overflow=hidden;pointerEvents=1;" vertex="1" parent="78"><mxGeometry width="40" height="40" as="geometry"><mxRectangle width="40" height="40" as="alternateBounds"/></mxGeometry></mxCell><mxCell id="80" value="issueDate" style="shape=partialRectangle;html=1;whiteSpace=wrap;connectable=0;fillColor=none;top=0;left=0;bottom=0;right=0;align=left;spacingLeft=6;overflow=hidden;pointerEvents=1;" vertex="1" parent="78"><mxGeometry x="40" width="160" height="40" as="geometry"><mxRectangle width="160" height="40" as="alternateBounds"/></mxGeometry></mxCell><mxCell id="81" value="" style="shape=partialRectangle;html=1;whiteSpace=wrap;collapsible=0;dropTarget=0;pointerEvents=1;fillColor=none;top=0;left=0;bottom=0;right=0;points=[[0,0.5],[1,0.5]];portConstraint=eastwest;" vertex="1" parent="68"><mxGeometry y="200" width="200" height="40" as="geometry"/></mxCell><mxCell id="82" value="5" style="shape=partialRectangle;html=1;whiteSpace=wrap;connectable=0;fillColor=none;top=0;left=0;bottom=0;right=0;overflow=hidden;pointerEvents=1;" vertex="1" parent="81"><mxGeometry width="40" height="40" as="geometry"><mxRectangle width="40" height="40" as="alternateBounds"/></mxGeometry></mxCell><mxCell id="83" value="returnDate" style="shape=partialRectangle;html=1;whiteSpace=wrap;connectable=0;fillColor=none;top=0;left=0;bottom=0;right=0;align=left;spacingLeft=6;overflow=hidden;pointerEvents=1;" vertex="1" parent="81"><mxGeometry x="40" width="160" height="40" as="geometry"><mxRectangle width="160" height="40" as="alternateBounds"/></mxGeometry></mxCell><mxCell id="84" value="" style="shape=partialRectangle;html=1;whiteSpace=wrap;collapsible=0;dropTarget=0;pointerEvents=1;fillColor=none;top=0;left=0;bottom=0;right=0;points=[[0,0.5],[1,0.5]];portConstraint=eastwest;" vertex="1" parent="68"><mxGeometry y="240" width="200" height="40" as="geometry"/></mxCell><mxCell id="85" value="6" style="shape=partialRectangle;html=1;whiteSpace=wrap;connectable=0;fillColor=none;top=0;left=0;bottom=0;right=0;overflow=hidden;pointerEvents=1;" vertex="1" parent="84"><mxGeometry width="40" height="40" as="geometry"><mxRectangle width="40" height="40" as="alternateBounds"/></mxGeometry></mxCell><mxCell id="86" value="returnDate" style="shape=partialRectangle;html=1;whiteSpace=wrap;connectable=0;fillColor=none;top=0;left=0;bottom=0;right=0;align=left;spacingLeft=6;overflow=hidden;pointerEvents=1;" vertex="1" parent="84"><mxGeometry x="40" width="160" height="40" as="geometry"><mxRectangle width="160" height="40" as="alternateBounds"/></mxGeometry></mxCell><mxCell id="87" value="" style="shape=partialRectangle;html=1;whiteSpace=wrap;collapsible=0;dropTarget=0;pointerEvents=1;fillColor=none;top=0;left=0;bottom=0;right=0;points=[[0,0.5],[1,0.5]];portConstraint=eastwest;" vertex="1" parent="68"><mxGeometry y="280" width="200" height="40" as="geometry"/></mxCell><mxCell id="88" value="7" style="shape=partialRectangle;html=1;whiteSpace=wrap;connectable=0;fillColor=none;top=0;left=0;bottom=0;right=0;overflow=hidden;pointerEvents=1;" vertex="1" parent="87"><mxGeometry width="40" height="40" as="geometry"><mxRectangle width="40" height="40" as="alternateBounds"/></mxGeometry></mxCell><mxCell id="89" value="orderStatus" style="shape=partialRectangle;html=1;whiteSpace=wrap;connectable=0;fillColor=none;top=0;left=0;bottom=0;right=0;align=left;spacingLeft=6;overflow=hidden;pointerEvents=1;" vertex="1" parent="87"><mxGeometry x="40" width="160" height="40" as="geometry"><mxRectangle width="160" height="40" as="alternateBounds"/></mxGeometry></mxCell><mxCell id="99" value="Book" style="shape=table;startSize=40;container=1;collapsible=0;childLayout=tableLayout;fixedRows=1;rowLines=0;fontStyle=1;align=center;pointerEvents=1;" vertex="1" parent="1"><mxGeometry x="40" y="520" width="200" height="200" as="geometry"/></mxCell><mxCell id="100" value="" style="shape=partialRectangle;html=1;whiteSpace=wrap;collapsible=0;dropTarget=0;pointerEvents=1;fillColor=none;top=0;left=0;bottom=1;right=0;points=[[0,0.5],[1,0.5]];portConstraint=eastwest;" vertex="1" parent="99"><mxGeometry y="40" width="200" height="40" as="geometry"/></mxCell><mxCell id="101" value="1" style="shape=partialRectangle;html=1;whiteSpace=wrap;connectable=0;fillColor=none;top=0;left=0;bottom=0;right=0;overflow=hidden;pointerEvents=1;" vertex="1" parent="100"><mxGeometry width="40" height="40" as="geometry"><mxRectangle width="40" height="40" as="alternateBounds"/></mxGeometry></mxCell><mxCell id="102" value="id" style="shape=partialRectangle;html=1;whiteSpace=wrap;connectable=0;fillColor=none;top=0;left=0;bottom=0;right=0;align=left;spacingLeft=6;overflow=hidden;pointerEvents=1;" vertex="1" parent="100"><mxGeometry x="40" width="160" height="40" as="geometry"><mxRectangle width="160" height="40" as="alternateBounds"/></mxGeometry></mxCell><mxCell id="103" value="" style="shape=partialRectangle;html=1;whiteSpace=wrap;collapsible=0;dropTarget=0;pointerEvents=1;fillColor=none;top=0;left=0;bottom=0;right=0;points=[[0,0.5],[1,0.5]];portConstraint=eastwest;" vertex="1" parent="99"><mxGeometry y="80" width="200" height="40" as="geometry"/></mxCell><mxCell id="104" value="2" style="shape=partialRectangle;html=1;whiteSpace=wrap;connectable=0;fillColor=none;top=0;left=0;bottom=0;right=0;overflow=hidden;pointerEvents=1;" vertex="1" parent="103"><mxGeometry width="40" height="40" as="geometry"><mxRectangle width="40" height="40" as="alternateBounds"/></mxGeometry></mxCell><mxCell id="105" value="genre" style="shape=partialRectangle;html=1;whiteSpace=wrap;connectable=0;fillColor=none;top=0;left=0;bottom=0;right=0;align=left;spacingLeft=6;overflow=hidden;pointerEvents=1;" vertex="1" parent="103"><mxGeometry x="40" width="160" height="40" as="geometry"><mxRectangle width="160" height="40" as="alternateBounds"/></mxGeometry></mxCell><mxCell id="106" value="" style="shape=partialRectangle;html=1;whiteSpace=wrap;collapsible=0;dropTarget=0;pointerEvents=1;fillColor=none;top=0;left=0;bottom=0;right=0;points=[[0,0.5],[1,0.5]];portConstraint=eastwest;" vertex="1" parent="99"><mxGeometry y="120" width="200" height="40" as="geometry"/></mxCell><mxCell id="107" value="3" style="shape=partialRectangle;html=1;whiteSpace=wrap;connectable=0;fillColor=none;top=0;left=0;bottom=0;right=0;overflow=hidden;pointerEvents=1;" vertex="1" parent="106"><mxGeometry width="40" height="40" as="geometry"><mxRectangle width="40" height="40" as="alternateBounds"/></mxGeometry></mxCell><mxCell id="108" value="name" style="shape=partialRectangle;html=1;whiteSpace=wrap;connectable=0;fillColor=none;top=0;left=0;bottom=0;right=0;align=left;spacingLeft=6;overflow=hidden;pointerEvents=1;" vertex="1" parent="106"><mxGeometry x="40" width="160" height="40" as="geometry"><mxRectangle width="160" height="40" as="alternateBounds"/></mxGeometry></mxCell><mxCell id="184" value="" style="shape=partialRectangle;html=1;whiteSpace=wrap;collapsible=0;dropTarget=0;pointerEvents=1;fillColor=none;top=0;left=0;bottom=1;right=0;points=[[0,0.5],[1,0.5]];portConstraint=eastwest;" vertex="1" parent="99"><mxGeometry y="160" width="200" height="40" as="geometry"/></mxCell><mxCell id="185" value="4" style="shape=partialRectangle;html=1;whiteSpace=wrap;connectable=0;fillColor=none;top=0;left=0;bottom=0;right=0;overflow=hidden;pointerEvents=1;" vertex="1" parent="184"><mxGeometry width="40" height="40" as="geometry"><mxRectangle width="40" height="40" as="alternateBounds"/></mxGeometry></mxCell><mxCell id="186" value="author" style="shape=partialRectangle;html=1;whiteSpace=wrap;connectable=0;fillColor=none;top=0;left=0;bottom=0;right=0;align=left;spacingLeft=6;overflow=hidden;pointerEvents=1;" vertex="1" parent="184"><mxGeometry x="40" width="160" height="40" as="geometry"><mxRectangle width="160" height="40" as="alternateBounds"/></mxGeometry></mxCell><mxCell id="121" value="Author" style="shape=table;startSize=40;container=1;collapsible=0;childLayout=tableLayout;fixedRows=1;rowLines=0;fontStyle=1;align=center;pointerEvents=1;" vertex="1" parent="1"><mxGeometry x="320" y="360" width="200" height="200" as="geometry"/></mxCell><mxCell id="122" value="" style="shape=partialRectangle;html=1;whiteSpace=wrap;collapsible=0;dropTarget=0;pointerEvents=1;fillColor=none;top=0;left=0;bottom=1;right=0;points=[[0,0.5],[1,0.5]];portConstraint=eastwest;" vertex="1" parent="121"><mxGeometry y="40" width="200" height="40" as="geometry"/></mxCell><mxCell id="123" value="1" style="shape=partialRectangle;html=1;whiteSpace=wrap;connectable=0;fillColor=none;top=0;left=0;bottom=0;right=0;overflow=hidden;pointerEvents=1;" vertex="1" parent="122"><mxGeometry width="40" height="40" as="geometry"><mxRectangle width="40" height="40" as="alternateBounds"/></mxGeometry></mxCell><mxCell id="124" value="id" style="shape=partialRectangle;html=1;whiteSpace=wrap;connectable=0;fillColor=none;top=0;left=0;bottom=0;right=0;align=left;spacingLeft=6;overflow=hidden;pointerEvents=1;" vertex="1" parent="122"><mxGeometry x="40" width="160" height="40" as="geometry"><mxRectangle width="160" height="40" as="alternateBounds"/></mxGeometry></mxCell><mxCell id="125" value="" style="shape=partialRectangle;html=1;whiteSpace=wrap;collapsible=0;dropTarget=0;pointerEvents=1;fillColor=none;top=0;left=0;bottom=0;right=0;points=[[0,0.5],[1,0.5]];portConstraint=eastwest;" vertex="1" parent="121"><mxGeometry y="80" width="200" height="40" as="geometry"/></mxCell><mxCell id="126" value="2" style="shape=partialRectangle;html=1;whiteSpace=wrap;connectable=0;fillColor=none;top=0;left=0;bottom=0;right=0;overflow=hidden;pointerEvents=1;" vertex="1" parent="125"><mxGeometry width="40" height="40" as="geometry"><mxRectangle width="40" height="40" as="alternateBounds"/></mxGeometry></mxCell><mxCell id="127" value="firstName" style="shape=partialRectangle;html=1;whiteSpace=wrap;connectable=0;fillColor=none;top=0;left=0;bottom=0;right=0;align=left;spacingLeft=6;overflow=hidden;pointerEvents=1;" vertex="1" parent="125"><mxGeometry x="40" width="160" height="40" as="geometry"><mxRectangle width="160" height="40" as="alternateBounds"/></mxGeometry></mxCell><mxCell id="128" value="" style="shape=partialRectangle;html=1;whiteSpace=wrap;collapsible=0;dropTarget=0;pointerEvents=1;fillColor=none;top=0;left=0;bottom=0;right=0;points=[[0,0.5],[1,0.5]];portConstraint=eastwest;" vertex="1" parent="121"><mxGeometry y="120" width="200" height="40" as="geometry"/></mxCell><mxCell id="129" value="3" style="shape=partialRectangle;html=1;whiteSpace=wrap;connectable=0;fillColor=none;top=0;left=0;bottom=0;right=0;overflow=hidden;pointerEvents=1;" vertex="1" parent="128"><mxGeometry width="40" height="40" as="geometry"><mxRectangle width="40" height="40" as="alternateBounds"/></mxGeometry></mxCell><mxCell id="130" value="secondName" style="shape=partialRectangle;html=1;whiteSpace=wrap;connectable=0;fillColor=none;top=0;left=0;bottom=0;right=0;align=left;spacingLeft=6;overflow=hidden;pointerEvents=1;" vertex="1" parent="128"><mxGeometry x="40" width="160" height="40" as="geometry"><mxRectangle width="160" height="40" as="alternateBounds"/></mxGeometry></mxCell><mxCell id="131" value="" style="shape=partialRectangle;html=1;whiteSpace=wrap;collapsible=0;dropTarget=0;pointerEvents=1;fillColor=none;top=0;left=0;bottom=0;right=0;points=[[0,0.5],[1,0.5]];portConstraint=eastwest;" vertex="1" parent="121"><mxGeometry y="160" width="200" height="40" as="geometry"/></mxCell><mxCell id="132" value="4" style="shape=partialRectangle;html=1;whiteSpace=wrap;connectable=0;fillColor=none;top=0;left=0;bottom=0;right=0;overflow=hidden;pointerEvents=1;" vertex="1" parent="131"><mxGeometry width="40" height="40" as="geometry"><mxRectangle width="40" height="40" as="alternateBounds"/></mxGeometry></mxCell><mxCell id="133" value="middleName" style="shape=partialRectangle;html=1;whiteSpace=wrap;connectable=0;fillColor=none;top=0;left=0;bottom=0;right=0;align=left;spacingLeft=6;overflow=hidden;pointerEvents=1;" vertex="1" parent="131"><mxGeometry x="40" width="160" height="40" as="geometry"><mxRectangle width="160" height="40" as="alternateBounds"/></mxGeometry></mxCell><mxCell id="152" value="User" style="shape=table;startSize=40;container=1;collapsible=0;childLayout=tableLayout;fixedRows=1;rowLines=0;fontStyle=1;align=center;pointerEvents=1;" vertex="1" parent="1"><mxGeometry x="320" y="40" width="200" height="240" as="geometry"/></mxCell><mxCell id="153" value="" style="shape=partialRectangle;html=1;whiteSpace=wrap;collapsible=0;dropTarget=0;pointerEvents=1;fillColor=none;top=0;left=0;bottom=1;right=0;points=[[0,0.5],[1,0.5]];portConstraint=eastwest;" vertex="1" parent="152"><mxGeometry y="40" width="200" height="40" as="geometry"/></mxCell><mxCell id="154" value="1" style="shape=partialRectangle;html=1;whiteSpace=wrap;connectable=0;fillColor=none;top=0;left=0;bottom=0;right=0;overflow=hidden;pointerEvents=1;" vertex="1" parent="153"><mxGeometry width="40" height="40" as="geometry"><mxRectangle width="40" height="40" as="alternateBounds"/></mxGeometry></mxCell><mxCell id="155" value="id" style="shape=partialRectangle;html=1;whiteSpace=wrap;connectable=0;fillColor=none;top=0;left=0;bottom=0;right=0;align=left;spacingLeft=6;overflow=hidden;pointerEvents=1;" vertex="1" parent="153"><mxGeometry x="40" width="160" height="40" as="geometry"><mxRectangle width="160" height="40" as="alternateBounds"/></mxGeometry></mxCell><mxCell id="156" value="" style="shape=partialRectangle;html=1;whiteSpace=wrap;collapsible=0;dropTarget=0;pointerEvents=1;fillColor=none;top=0;left=0;bottom=0;right=0;points=[[0,0.5],[1,0.5]];portConstraint=eastwest;" vertex="1" parent="152"><mxGeometry y="80" width="200" height="40" as="geometry"/></mxCell><mxCell id="157" value="2" style="shape=partialRectangle;html=1;whiteSpace=wrap;connectable=0;fillColor=none;top=0;left=0;bottom=0;right=0;overflow=hidden;pointerEvents=1;" vertex="1" parent="156"><mxGeometry width="40" height="40" as="geometry"><mxRectangle width="40" height="40" as="alternateBounds"/></mxGeometry></mxCell><mxCell id="158" value="firstName" style="shape=partialRectangle;html=1;whiteSpace=wrap;connectable=0;fillColor=none;top=0;left=0;bottom=0;right=0;align=left;spacingLeft=6;overflow=hidden;pointerEvents=1;" vertex="1" parent="156"><mxGeometry x="40" width="160" height="40" as="geometry"><mxRectangle width="160" height="40" as="alternateBounds"/></mxGeometry></mxCell><mxCell id="159" value="" style="shape=partialRectangle;html=1;whiteSpace=wrap;collapsible=0;dropTarget=0;pointerEvents=1;fillColor=none;top=0;left=0;bottom=0;right=0;points=[[0,0.5],[1,0.5]];portConstraint=eastwest;" vertex="1" parent="152"><mxGeometry y="120" width="200" height="40" as="geometry"/></mxCell><mxCell id="160" value="3" style="shape=partialRectangle;html=1;whiteSpace=wrap;connectable=0;fillColor=none;top=0;left=0;bottom=0;right=0;overflow=hidden;pointerEvents=1;" vertex="1" parent="159"><mxGeometry width="40" height="40" as="geometry"><mxRectangle width="40" height="40" as="alternateBounds"/></mxGeometry></mxCell><mxCell id="161" value="secondName" style="shape=partialRectangle;html=1;whiteSpace=wrap;connectable=0;fillColor=none;top=0;left=0;bottom=0;right=0;align=left;spacingLeft=6;overflow=hidden;pointerEvents=1;" vertex="1" parent="159"><mxGeometry x="40" width="160" height="40" as="geometry"><mxRectangle width="160" height="40" as="alternateBounds"/></mxGeometry></mxCell><mxCell id="162" value="" style="shape=partialRectangle;html=1;whiteSpace=wrap;collapsible=0;dropTarget=0;pointerEvents=1;fillColor=none;top=0;left=0;bottom=0;right=0;points=[[0,0.5],[1,0.5]];portConstraint=eastwest;" vertex="1" parent="152"><mxGeometry y="160" width="200" height="40" as="geometry"/></mxCell><mxCell id="163" value="4" style="shape=partialRectangle;html=1;whiteSpace=wrap;connectable=0;fillColor=none;top=0;left=0;bottom=0;right=0;overflow=hidden;pointerEvents=1;" vertex="1" parent="162"><mxGeometry width="40" height="40" as="geometry"><mxRectangle width="40" height="40" as="alternateBounds"/></mxGeometry></mxCell><mxCell id="164" value="middleName" style="shape=partialRectangle;html=1;whiteSpace=wrap;connectable=0;fillColor=none;top=0;left=0;bottom=0;right=0;align=left;spacingLeft=6;overflow=hidden;pointerEvents=1;" vertex="1" parent="162"><mxGeometry x="40" width="160" height="40" as="geometry"><mxRectangle width="160" height="40" as="alternateBounds"/></mxGeometry></mxCell><mxCell id="165" value="" style="shape=partialRectangle;html=1;whiteSpace=wrap;collapsible=0;dropTarget=0;pointerEvents=1;fillColor=none;top=0;left=0;bottom=0;right=0;points=[[0,0.5],[1,0.5]];portConstraint=eastwest;" vertex="1" parent="152"><mxGeometry y="200" width="200" height="40" as="geometry"/></mxCell><mxCell id="166" value="5" style="shape=partialRectangle;html=1;whiteSpace=wrap;connectable=0;fillColor=none;top=0;left=0;bottom=0;right=0;overflow=hidden;pointerEvents=1;" vertex="1" parent="165"><mxGeometry width="40" height="40" as="geometry"><mxRectangle width="40" height="40" as="alternateBounds"/></mxGeometry></mxCell><mxCell id="167" value="role" style="shape=partialRectangle;html=1;whiteSpace=wrap;connectable=0;fillColor=none;top=0;left=0;bottom=0;right=0;align=left;spacingLeft=6;overflow=hidden;pointerEvents=1;" vertex="1" parent="165"><mxGeometry x="40" width="160" height="40" as="geometry"><mxRectangle width="160" height="40" as="alternateBounds"/></mxGeometry></mxCell><mxCell id="180" style="edgeStyle=orthogonalEdgeStyle;rounded=0;orthogonalLoop=1;jettySize=auto;html=1;entryX=0;entryY=0.5;entryDx=0;entryDy=0;" edge="1" parent="1" target="122"><mxGeometry relative="1" as="geometry"><mxPoint x="240" y="660" as="sourcePoint"/><Array as="points"><mxPoint x="240" y="660"/><mxPoint x="280" y="660"/><mxPoint x="280" y="420"/></Array></mxGeometry></mxCell><mxCell id="182" style="edgeStyle=orthogonalEdgeStyle;rounded=0;orthogonalLoop=1;jettySize=auto;html=1;exitX=1;exitY=0.5;exitDx=0;exitDy=0;entryX=0;entryY=0.5;entryDx=0;entryDy=0;" edge="1" parent="1" source="75" target="100"><mxGeometry relative="1" as="geometry"><Array as="points"><mxPoint x="840" y="180"/><mxPoint x="840" y="740"/><mxPoint x="20" y="740"/><mxPoint x="20" y="580"/></Array></mxGeometry></mxCell><mxCell id="183" style="edgeStyle=orthogonalEdgeStyle;rounded=0;orthogonalLoop=1;jettySize=auto;html=1;exitX=0;exitY=0.5;exitDx=0;exitDy=0;entryX=1;entryY=0.5;entryDx=0;entryDy=0;" edge="1" parent="1" source="72" target="3"><mxGeometry relative="1" as="geometry"><Array as="points"><mxPoint x="560" y="140"/><mxPoint x="560" y="20"/><mxPoint x="280" y="20"/><mxPoint x="280" y="100"/></Array></mxGeometry></mxCell></root></mxGraphModel></diagram></mxfile>